<svg width="19" height="17" viewBox="0 0 19 17" fill="none" xmlns="http://www.w3.org/2000/svg">
<g id="Group">
<path id="Vector" d="M15 0H14H4.57001C3.50001 0 2.59001 0.67 2.38001 1.61L1.04001 7.61C0.770007 8.85 1.82001 10 3.23001 10H7.46001L5.94001 14.94C5.62001 15.97 6.46001 17 7.62001 17C8.20001 17 8.76001 16.76 9.14001 16.35L15 10H19V0H15ZM8.40001 15.67C8.21001 15.88 7.92001 16 7.62001 16C7.36001 16 7.12001 15.89 6.99001 15.7C6.92001 15.6 6.84001 15.44 6.90001 15.23L8.42001 10.29L8.82001 9H7.46001H3.23001C2.82001 9 2.43001 8.83 2.20001 8.54C2.08001 8.39 1.95001 8.14 2.02001 7.82L3.36001 1.82C3.46001 1.35 3.97001 1 4.57001 1H14V9.61L8.40001 15.67ZM18 9H15V1H18V9Z" fill="white"/>
</g>
</svg>
