<svg width="20" height="16" viewBox="0 0 20 16" fill="none" xmlns="http://www.w3.org/2000/svg">
<g id="Group">
<path id="Vector" d="M12 8.00001C12 9.10001 11.1 10 10 10C8.9 10 8 9.10001 8 8.00001C8 6.90001 8.9 6.00001 10 6.00001C11.1 6.00001 12 6.90001 12 8.00001ZM6.48 4.45001L5.77 3.75001C4.68 4.83001 4 6.34001 4 8.00001C4 9.66001 4.68 11.17 5.77 12.25L6.48 11.54C5.57 10.64 5 9.39001 5 8.00001C5 6.61001 5.57 5.36001 6.48 4.45001ZM14.23 3.75001L13.52 4.46001C14.43 5.36001 15 6.61001 15 8.00001C15 9.39001 14.43 10.64 13.52 11.55L14.23 12.26C15.32 11.17 16 9.66001 16 8.00001C16 6.34001 15.32 4.83001 14.23 3.75001ZM3.65 1.63001L2.95 0.920013C1.13 2.73001 0 5.24001 0 8.00001C0 10.76 1.13 13.27 2.95 15.08L3.66 14.37C2.02 12.74 1 10.49 1 8.00001C1 5.51001 2.02 3.26001 3.65 1.63001ZM17.05 0.920013L16.34 1.63001C17.98 3.26001 19 5.51001 19 8.00001C19 10.49 17.98 12.74 16.35 14.37L17.06 15.08C18.87 13.27 20 10.76 20 8.00001C20 5.24001 18.87 2.73001 17.05 0.920013Z" fill="white"/>
</g>
</svg>
