<svg width="20" height="14" viewBox="0 0 20 14" fill="none" xmlns="http://www.w3.org/2000/svg">
<g id="Group">
<path id="Vector" d="M7.99997 4.35L13 7L7.99997 9.65V4.35ZM9.99997 1C7.47421 0.950847 4.94808 1.07782 2.43997 1.38C2.18719 1.4509 1.9569 1.58564 1.77126 1.77129C1.58562 1.95693 1.45087 2.18722 1.37997 2.44C1.11208 3.94492 0.984866 5.4715 0.999973 7C0.984866 8.5285 1.11208 10.0551 1.37997 11.56C1.45087 11.8128 1.58562 12.0431 1.77126 12.2287C1.9569 12.4144 2.18719 12.5491 2.43997 12.62C4.94808 12.9222 7.47421 13.0492 9.99997 13C12.5257 13.0492 15.0519 12.9222 17.56 12.62C17.8128 12.5491 18.043 12.4144 18.2287 12.2287C18.4143 12.0431 18.5491 11.8128 18.62 11.56C18.8879 10.0551 19.0151 8.5285 19 7C19.0151 5.4715 18.8879 3.94492 18.62 2.44C18.5491 2.18722 18.4143 1.95693 18.2287 1.77129C18.043 1.58564 17.8128 1.4509 17.56 1.38C15.0519 1.07782 12.5257 0.950847 9.99997 1ZM9.99997 0C9.99997 0 16.25 8.9407e-08 17.81 0.42C18.2341 0.534356 18.6208 0.758008 18.9314 1.06861C19.242 1.37921 19.4656 1.76589 19.58 2.19C19.8696 3.77673 20.0102 5.38708 20 7C20.0102 8.61292 19.8696 10.2233 19.58 11.81C19.4656 12.2341 19.242 12.6208 18.9314 12.9314C18.6208 13.242 18.2341 13.4656 17.81 13.58C16.25 14 9.99997 14 9.99997 14C9.99997 14 3.74997 14 2.18997 13.58C1.76586 13.4656 1.37919 13.242 1.06858 12.9314C0.757982 12.6208 0.534329 12.2341 0.419974 11.81C0.130332 10.2233 -0.0102806 8.61292 -2.65368e-05 7C-0.0102806 5.38708 0.130332 3.77673 0.419974 2.19C0.534329 1.76589 0.757982 1.37921 1.06858 1.06861C1.37919 0.758008 1.76586 0.534356 2.18997 0.42C3.74997 8.9407e-08 9.99997 0 9.99997 0Z" fill="white"/>
</g>
</svg>
