<svg width="20" height="20" viewBox="0 0 20 20" fill="none" xmlns="http://www.w3.org/2000/svg">
<g id="Group">
<path id="Vector" d="M10 7C11.65 7 13 8.35 13 10C13 11.65 11.65 13 10 13C8.35003 13 7.00003 11.65 7.00003 10C7.00003 8.35 8.35003 7 10 7ZM10 6C7.79003 6 6.00003 7.79 6.00003 10C6.00003 12.21 7.79003 14 10 14C12.21 14 14 12.21 14 10C14 7.79 12.21 6 10 6ZM11.22 1L11.77 3.2L11.9 3.71L12.4 3.89C13.01 4.12 13.59 4.45 14.12 4.87L14.52 5.19L15.02 5.05L17.19 4.43L18.41 6.54L16.78 8.13L16.41 8.49L16.49 9C16.54 9.32 16.57 9.64 16.57 9.98C16.57 10.32 16.54 10.64 16.49 10.96L16.41 11.47L16.78 11.83L18.41 13.42L17.19 15.53L15.02 14.91L14.52 14.77L14.12 15.09C13.59 15.52 13.01 15.85 12.4 16.07L11.9 16.25L11.77 16.76L11.22 19H8.78003L8.23003 16.8L8.10003 16.29L7.60003 16.11C7.00003 15.88 6.42003 15.55 5.88003 15.12L5.48003 14.8L4.98003 14.94L2.81003 15.56L1.60003 13.44L3.23003 11.85L3.60003 11.49L3.52003 10.98C3.47003 10.66 3.44003 10.33 3.44003 10C3.44003 9.67 3.47003 9.34 3.52003 9.02L3.60003 8.51L3.23003 8.15L1.60003 6.56L2.82003 4.45L4.99003 5.07L5.49003 5.21L5.89003 4.89C6.42003 4.45 7.00003 4.12 7.61003 3.9L8.11003 3.72L8.24003 3.21L8.78003 1H11.22ZM12 0H8.00003L7.26003 2.96C6.53003 3.23 5.86003 3.62 5.26003 4.1L2.34003 3.27L0.340027 6.73L2.53003 8.86C2.47003 9.23 2.44003 9.61 2.44003 10C2.44003 10.39 2.47003 10.77 2.53003 11.14L0.340027 13.27L2.34003 16.73L5.26003 15.9C5.86003 16.38 6.53003 16.77 7.26003 17.04L8.00003 20H12L12.74 17.04C13.47 16.77 14.14 16.38 14.74 15.9L17.66 16.73L19.66 13.27L17.47 11.14C17.53 10.77 17.56 10.39 17.56 10C17.56 9.61 17.53 9.23 17.47 8.86L19.66 6.73L17.66 3.27L14.74 4.1C14.14 3.62 13.47 3.23 12.74 2.96L12 0Z" fill="white"/>
</g>
</svg>
