<svg width="16" height="20" viewBox="0 0 16 20" fill="none" xmlns="http://www.w3.org/2000/svg">
<g id="Group">
<path id="Vector" d="M13 1V3V4V8V8.51L12.99 8.97C12.94 11.1 11.66 12.94 9.74 13.67H9.72L9.66 13.69L9 13.95V14.65V17V18H10V19H11H6V18H7V17V14.65V13.95L6.34 13.71L6.26 13.68H6.25C4.33 12.95 3.05 11.11 3 8.98V8.51V8V4V3V1H13ZM14 0H2V3H0V4V8V9H2.01C2.07 11.53 3.63 13.78 5.97 14.64C5.98 14.64 5.99 14.64 6 14.65V17H5V18H4V20H12V18H11V17H10V14.65C10.01 14.65 10.02 14.65 10.03 14.64C12.36 13.78 13.93 11.54 13.99 9H16V8V4V3H14V0ZM14 8V4H15V8H14ZM1 8V4H2V8H1Z" fill="white"/>
</g>
</svg>
