<svg width="20" height="16" viewBox="0 0 20 16" fill="none" xmlns="http://www.w3.org/2000/svg">
<g id="Group">
<path id="Vector" d="M12 8.00001C12 9.10001 11.1 10 10 10C8.9 10 8 9.10001 8 8.00001C8 6.90001 8.9 6.00001 10 6.00001C11.1 6.00001 12 6.90001 12 8.00001ZM4.36 2.33001L2.95 0.920013C1.13 2.73001 0 5.24001 0 8.00001C0 10.76 1.13 13.27 2.95 15.08L4.36 13.67C2.9 12.22 2 10.21 2 8.00001C2 5.79001 2.9 3.78001 4.36 2.33001ZM17.05 0.920013L15.64 2.33001C17.1 3.78001 18 5.79001 18 8.00001C18 10.21 17.1 12.22 15.64 13.67L17.05 15.08C18.87 13.27 20 10.76 20 8.00001C20 5.24001 18.87 2.73001 17.05 0.920013ZM7.19 5.16001L5.77 3.75001C4.68 4.83001 4 6.34001 4 8.00001C4 9.66001 4.68 11.17 5.77 12.25L7.18 10.84C6.46 10.11 6 9.11001 6 8.00001C6 6.89001 6.46 5.89001 7.19 5.16001ZM14.23 3.75001L12.82 5.16001C13.54 5.89001 14 6.89001 14 8.00001C14 9.11001 13.54 10.11 12.81 10.84L14.22 12.25C15.32 11.17 16 9.66001 16 8.00001C16 6.34001 15.32 4.83001 14.23 3.75001Z" fill="white"/>
</g>
</svg>
