<svg width="20" height="14" viewBox="0 0 20 14" fill="none" xmlns="http://www.w3.org/2000/svg">
<g id="Group">
<path id="Vector" d="M19.58 2.19C19.4656 1.76589 19.242 1.37921 18.9314 1.06861C18.6208 0.758008 18.2341 0.534356 17.81 0.42C16.25 8.9407e-08 9.99997 0 9.99997 0C9.99997 0 3.74997 8.9407e-08 2.18997 0.42C1.76586 0.534356 1.37919 0.758008 1.06858 1.06861C0.757982 1.37921 0.534329 1.76589 0.419974 2.19C0.130332 3.77673 -0.0102806 5.38708 -2.65368e-05 7C-0.0102806 8.61292 0.130332 10.2233 0.419974 11.81C0.534329 12.2341 0.757982 12.6208 1.06858 12.9314C1.37919 13.242 1.76586 13.4656 2.18997 13.58C3.74997 14 9.99997 14 9.99997 14C9.99997 14 16.25 14 17.81 13.58C18.2341 13.4656 18.6208 13.242 18.9314 12.9314C19.242 12.6208 19.4656 12.2341 19.58 11.81C19.8696 10.2233 20.0102 8.61292 20 7C20.0102 5.38708 19.8696 3.77673 19.58 2.19ZM7.99997 9.65V4.35L13 7L7.99997 9.65Z" fill="white"/>
</g>
</svg>
